<?xml version="1.0" encoding="UTF-8" standalone="no"?>
<svg width="40px" height="40px" viewBox="0 0 33 33" version="1.1" xmlns="http://www.w3.org/2000/svg" xmlns:xlink="http://www.w3.org/1999/xlink">
    <!-- Generator: Sketch 41.2 (35397) - http://www.bohemiancoding.com/sketch -->
    <title>Group 4</title>
    <desc>Created with Sketch.</desc>
    <defs>
        <rect id="path-1" x="0.860655738" y="0.288982082" width="25" height="24" rx="12"></rect>
        <filter x="-50%" y="-50%" width="200%" height="200%" filterUnits="objectBoundingBox" id="filter-2">
            <feOffset dx="0" dy="2" in="SourceAlpha" result="shadowOffsetOuter1"></feOffset>
            <feGaussianBlur stdDeviation="2" in="shadowOffsetOuter1" result="shadowBlurOuter1"></feGaussianBlur>
            <feColorMatrix values="0 0 0 0 0   0 0 0 0 0   0 0 0 0 0  0 0 0 0.283372962 0" type="matrix" in="shadowBlurOuter1"></feColorMatrix>
        </filter>
    </defs>
    <g id="Page-1" stroke="none" stroke-width="1" fill="none" fill-rule="evenodd">
        <g id="Profile" transform="translate(-280.000000, -127.000000)">
            <g id="Group-4" transform="translate(283.000000, 129.000000)">
                <g id="Rectangle-10">
                    <use fill="black" fill-opacity="1" filter="url(#filter-2)" xlink:href="#path-1"></use>
                    <use fill="#4D8885" fill-rule="evenodd" xlink:href="#path-1"></use>
                </g>
                <path d="M14.9596672,8.27412895 L17.4422729,10.8458773 L11.1581123,17.355743 L8.67691414,14.7839947 L14.9596672,8.27412895 Z M19.3260905,7.65388221 L18.2189439,6.50697075 C17.7910699,6.06372906 17.0962911,6.06372906 16.6669634,6.50697075 L15.6064276,7.60559724 L18.0890334,10.1773695 L19.3260905,8.8958816 C19.6579507,8.55207827 19.6579507,7.99766164 19.3260905,7.65388221 Z M7.37771688,18.398794 C7.33253665,18.6094312 7.51611887,18.7981729 7.71947609,18.7469478 L10.4859236,18.0520984 L8.00472539,15.48035 L7.37771688,18.398794 Z" id="Shape" fill="#FFFFFF"></path>
            </g>
        </g>
    </g>
</svg>
