<?xml version="1.0" encoding="UTF-8" standalone="no"?>
<svg width="92px" height="92px" viewBox="0 0 92 92" version="1.1" xmlns="http://www.w3.org/2000/svg" xmlns:xlink="http://www.w3.org/1999/xlink">
    <!-- Generator: Sketch 41.2 (35397) - http://www.bohemiancoding.com/sketch -->
    <title>Group</title>
    <desc>Created with Sketch.</desc>
    <defs></defs>
    <g id="Page-1" stroke="none" stroke-width="1" fill="none" fill-rule="evenodd">
        <g id="HR--sign-up" transform="translate(-632.000000, -176.000000)">
            <g id="Group" transform="translate(632.000000, 176.000000)">
                <circle id="Oval" fill="#4D8885" cx="46" cy="46" r="46"></circle>
                <g id="Group-Copy" transform="translate(26.000000, 18.000000)" fill="#FFFFFF">
                    <path d="M36.6099022,20.2875047 C36.6099022,18.9802808 36.6099022,17.6784511 36.6026133,16.3730252 C36.587335,16.1571718 36.7076797,15.9541372 36.9058311,15.8614637 C37.4368267,15.5674732 37.96272,15.2468707 38.5833689,14.8935426 C38.5906578,16.9644227 37.9623556,18.7414921 36.60972,20.2878644 M34.8350578,14.219612 C34.8142844,14.001142 35.0355022,14.0162461 35.1382756,13.9265205 C36.4162,12.8911703 36.5475822,10.4730757 35.3804489,9.31581388 C34.6151156,8.55215773 33.4753156,8.66220189 32.8056489,9.55298423 C31.8183689,10.8744132 31.9984044,12.6457287 33.2537333,13.9416246 C33.1990667,14.055265 33.0897333,14.068571 32.9783956,14.0899685 C31.5357422,13.6478139 30.5756133,12.6874448 30.0373289,11.3122524 C29.6575778,10.3301262 29.3614667,9.30790221 28.9538356,8.33386751 C28.0567657,6.23702052 26.7124492,4.35547549 25.0123689,2.81727445 C24.8953822,2.70812934 24.7847733,2.59790536 24.6748933,2.48246688 C24.6532089,2.46286751 24.6604978,2.41503785 24.6406356,2.33322397 C26.1882073,2.57568682 27.6979723,3.01257924 29.1331422,3.63325552 C32.12268,4.90128076 34.8144667,6.57711672 36.7412844,9.25270032 C37.27228,9.98794637 37.7411378,10.758795 37.9355689,11.658388 C38.0041555,11.9066769 37.9768823,12.1712505 37.8590356,12.4008265 C37.4450267,13.2320915 35.8296267,14.2061262 34.83524,14.2194322 M31.6261244,24.3801767 C31.6591149,24.7287871 31.4575465,25.0577834 31.1293867,25.1909432 C29.328854,26.1479238 27.3890205,26.8240491 25.3788178,27.1952934 C25.2624517,27.2155974 25.1449462,27.2289278 25.0269467,27.2352114 C24.9429272,27.2261869 24.859838,27.2101259 24.7785778,27.1872019 C25.4553511,26.5416814 26.1168178,25.9626909 26.66312,25.2734763 C28.8643644,22.5090662 29.9695422,19.3424196 30.2385022,15.8675773 C30.27276,15.4049243 30.32852,15.3223912 30.8117733,15.5070568 C31.4741511,15.7575331 31.6468978,16.1268644 31.6334133,16.8151798 C31.5838489,19.3345079 31.6055333,21.8617476 31.6261244,24.3803565 M23.3845778,25.5534416 C23.2045422,25.3890946 23.2801644,25.1990347 23.2801644,25.0348675 C23.2728756,22.2657823 23.2874533,19.4846498 23.26668,16.7051356 C23.26668,16.2566877 23.40444,16.0657287 23.8463289,15.9360852 C25.3861067,15.4991451 26.7522267,14.7167886 28.0984844,13.6264164 C28.1946978,18.3534606 26.9869289,22.4134069 23.3845778,25.5534416 M22.1819111,13.9594259 C22.0244711,13.9195079 21.8309511,14.0225394 21.7057644,13.8448864 C23.2663156,12.8237413 23.6666578,11.2491388 22.6731822,9.94209464 C22.0306667,9.10381703 21.1955422,8.64116404 20.0976533,8.87204101 C18.9593111,9.11082965 18.2411733,9.83384858 17.9656533,10.9218833 C17.6901333,12.009918 18.1507911,12.8706719 18.98628,13.5573691 C19.1272783,13.6658363 19.277501,13.7620926 19.4352756,13.8450662 C19.311,14.0227192 19.1176622,13.9196877 18.9591289,13.9676972 C16.9432044,13.5181703 15.1964222,12.5651735 13.6090844,11.283123 C13.2437289,10.9830189 13.4507333,10.6633155 13.5469467,10.371123 C14.1500977,8.58737556 15.0866665,6.93096075 16.30816,5.48764353 C17.3562379,4.18254253 18.6531567,3.09258172 20.1257156,2.27928076 C20.4081385,2.09230026 20.7778124,2.09515457 21.0572356,2.28647319 C23.6812356,3.73574763 25.4336667,5.95676972 26.7655289,8.55233754 C27.0997191,9.21901371 27.3702722,9.91494843 27.5736844,10.6311293 C27.6564133,10.9028233 27.6502178,11.1070883 27.4080444,11.3050599 C25.9142095,12.601184 24.1189607,13.5129952 22.1819111,13.9594259 M17.7721333,25.4451956 C17.7721333,25.4576025 17.75136,25.4718076 17.7378756,25.4860126 C14.9076,23.8635804 12.4084222,17.7201672 12.9818756,13.6672334 C14.3171156,14.757146 15.8652868,15.564382 17.5301422,16.0387571 C17.7442533,16.0927003 17.7919956,16.2297161 17.7919956,16.4267886 C17.7856785,19.4309464 17.7787541,22.4372019 17.7712222,25.4455552 M9.69568,25.0569842 C9.52098303,24.9613884 9.42673635,24.7671646 9.46079556,24.5729338 L9.46079556,16.2496751 C9.46079556,15.9965016 10.3719067,15.3146593 10.6270178,15.3838864 C10.8484178,15.4378297 10.7520222,15.6431735 10.7656889,15.77947 C10.9364278,18.5191338 11.7619911,21.180001 13.1748489,23.5444164 C14.0046941,24.9282807 15.0586497,26.1686731 16.2948578,27.2163312 C13.9684311,26.9503233 11.7222347,26.2153352 9.69568,25.0569842 M8.15644889,14.0845741 C8.04492889,14.0624574 7.93504889,14.041959 7.8802,13.9335331 C8.97098222,12.8030631 9.15721333,11.5012334 8.59086667,10.0855836 C8.30040444,9.36921767 7.78234667,8.85154259 6.95505778,8.81773817 C6.12612889,8.79112618 5.6088,9.29459621 5.26312444,9.98812618 C4.50453333,11.4870284 4.89868,13.0819495 6.34133333,14.2257256 C5.73380444,14.3012461 5.26312444,14.055265 4.82888889,13.783571 C2.7716,12.5248959 2.78508444,11.9586719 3.80024444,10.1391672 C5.18130667,7.68816719 7.32679111,6.00531861 9.76383111,4.66357098 C11.6625332,3.60154375 13.7235542,2.85111831 15.8662711,2.44164984 C16.0184267,2.48965931 16.2124933,2.38770662 16.33604,2.55079495 C13.9620489,4.6689653 12.2566311,7.20501577 11.3721244,10.2546057 C11.2255907,10.7428708 11.0458144,11.2208158 10.8340222,11.6851798 C10.3448294,12.8362288 9.36453812,13.7146754 8.15644889,14.0845741 M4.40740889,20.3087224 C3.14479111,18.7423912 2.55803556,16.9592082 2.53726222,14.8660315 C3.18615556,15.2616151 3.73865333,15.594265 4.29042222,15.9306909 C4.41109266,15.9999857 4.47886309,16.133098 4.46316889,16.2699937 C4.46316889,17.6108423 4.46316889,18.9536688 4.40740889,20.3087224 M39.0252578,9.05580757 C37.6788178,6.719347 35.7534578,4.93526498 33.4410578,3.55989274 C28.53928,0.635630915 23.2249511,-0.479735016 17.53652,0.207681388 C13.0161333,0.745495268 8.87458667,2.25788328 5.36753778,5.20084543 C2.14402667,7.89800631 0.258573333,11.2705363 0.535733333,15.5613596 C0.701373333,18.1907319 1.77757778,20.5404984 3.40026667,22.5910599 C4.22828444,23.6264101 4.72502222,24.6281356 4.46316889,25.6697792 C4.46316889,26.5204637 4.47665333,27.1066467 4.45588,27.6917508 C4.43558622,27.9481022 4.56061776,28.19451 4.78078222,28.3320568 C6.07292559,29.2778502 7.4895273,30.0456782 8.99157333,30.6143943 C9.32996,30.7440379 9.48831111,30.7361262 9.46772,30.3000852 C9.43984,29.5594448 9.46043111,28.8161073 9.46043111,28.0747476 C9.46043111,27.3101924 9.46043111,27.3038991 10.1434,27.5892587 C12.4696489,28.5571798 14.8383556,29.3803533 17.3852756,29.5851577 C17.7236622,29.6126688 17.80548,29.7761167 17.7992844,30.0825142 C17.7785111,30.5530789 17.8056622,31.0229243 17.7919956,31.4927697 C17.7785111,31.7786688 17.8550444,31.9074132 18.1790356,31.9349243 C19.7382944,32.0712397 21.3067145,32.0712397 22.8659733,31.9349243 C23.1691911,31.9074132 23.2943778,31.8185868 23.2799822,31.5130883 C23.2664978,31.0842397 23.3078622,30.6534132 23.2726933,30.2245647 C23.2313289,29.7761167 23.3842133,29.5851577 23.8530711,29.5718517 C24.286679,29.5402464 24.717751,29.480904 25.1435689,29.3941987 C27.1323422,29.0611893 29.0097778,28.3773691 30.8591511,27.6225237 C31.70776,27.2850189 31.6115467,27.2620032 31.6115467,28.1482902 C31.6115467,28.8495521 31.6332311,29.5585457 31.6051689,30.2590883 C31.5907733,30.6746309 31.6942756,30.7625584 32.1019067,30.6134953 C33.621879,30.0369195 35.0584848,29.2657638 36.3748356,28.3198297 C36.5902738,28.1794539 36.7094623,27.933093 36.6846133,27.6795237 C36.67204,26.5837571 36.6846133,25.4858328 36.6782356,24.3889874 C36.6566933,24.097773 36.7594919,23.8109298 36.9617733,23.5978202 C37.6923245,22.7721626 38.3288124,21.8698621 38.8598,20.9071325 C41.0340756,16.9838423 41.3032178,13.033041 39.02544,9.05472871" id="Path_1"></path>
                    <path d="M35.8429289,41.2750126 L33.64788,41.2750126 C33.3381022,41.2750126 33.3508578,41.1248707 33.4273911,40.8921956 C33.8211733,39.7493186 34.20056,38.6046435 34.5865067,37.4599685 C34.6411733,37.4536751 34.69092,37.4457634 34.7457689,37.43947 C35.1876578,38.6179495 35.6213467,39.8025426 36.0577689,40.9817413 C36.1404978,41.193918 36.0433733,41.2757319 35.8436578,41.2757319 M26.1587289,41.4258738 C24.5774044,41.6488391 24.5774044,41.6488391 24.5774044,40.0952744 L24.5774044,38.746694 C24.5774044,38.0454322 24.5981778,37.3364385 24.5710267,36.6349968 C24.5502533,36.2406719 24.6943911,36.1110284 25.0812489,36.1457319 C25.48888,36.1856498 25.9101778,36.1315268 26.3240044,36.2203533 C27.6975956,36.5204574 28.5263422,37.5674953 28.46384,38.9865615 C28.4091733,40.2538675 27.4771067,41.2412082 26.1587289,41.4258738 M40.6754622,46.1441073 C39.8330489,46.0633722 39.4048267,45.5327508 39.1293067,44.8041577 C38.0448415,41.922511 36.9515081,39.0476972 35.8493067,36.1797161 C35.7665778,35.9684385 35.7386978,35.6965647 35.4147067,35.7037571 C35.02056,35.7100505 34.6003556,35.647836 34.2411956,35.7632744 C33.9860844,35.8458076 34.3095289,36.2338391 34.1367822,36.4523091 C34.1232978,36.4647161 34.1232978,36.4870126 34.11692,36.5073312 C33.185157,39.2109653 32.2533941,41.9123218 31.3216311,44.6114006 C31.1146267,45.1975836 31.0118533,45.2241956 30.5971156,44.7694543 C29.7548844,43.8493628 29.11984,42.7924353 28.4778711,41.730653 C28.2987467,41.4305489 28.3878533,41.2884984 28.6713911,41.1320631 C29.7891422,40.51747 30.0996489,39.5033375 29.9961467,38.3383438 C29.8935556,37.1803628 29.1817956,36.4645363 28.1054089,36.0774038 C27.6574389,35.9206376 27.191107,35.8206421 26.7176044,35.779817 C25.1714489,35.628776 23.6254756,35.7309085 22.0784089,35.7042965 C21.8652089,35.6971041 21.6228533,35.6695931 21.6095511,35.996489 C21.6022622,36.323205 21.85792,36.3021672 22.0585467,36.3499968 C22.9558089,36.5675678 23.1349333,36.7788454 23.1429511,37.6775394 L23.1429511,44.3664984 C23.1429511,45.653224 23.0882844,45.7287445 21.8588311,46.1708991 C21.7210711,46.2259211 21.60372,46.2800442 21.6239467,46.4506845 C21.6383422,46.6344511 21.7626178,46.6745489 21.91368,46.6745489 L26.3179911,46.6745489 C26.4637689,46.6745489 26.59424,46.6407445 26.6006178,46.4506845 C26.6079067,46.280224 26.5044044,46.2135142 26.35316,46.1851041 C26.1804133,46.1575931 26.0003778,46.143388 25.8203422,46.1043691 C24.92308,45.921142 24.5774044,45.5047003 24.5774044,44.5971956 L24.5774044,43.2500536 C24.5774044,41.96153 24.5774044,41.96153 25.8957822,41.9014732 L25.95792,41.9014732 C26.5798444,41.7177066 26.9038356,42.0160126 27.2214489,42.5275741 C27.9468756,43.6918486 28.6846933,44.8568423 29.7341111,45.7902397 C30.7698622,46.7094322 31.9776311,46.9748328 33.3238889,46.7164448 C33.5039244,46.6817413 33.6280178,46.6276183 33.6209111,46.4251514 C33.6136222,46.2395868 33.4751333,46.2181893 33.3382844,46.1996688 C33.0412622,46.1437476 32.7369511,46.1579527 32.4689022,46.0159022 C32.0953467,45.8303375 31.8741289,45.5789621 32.0333911,45.1296151 C32.3519156,44.2239085 32.6480267,43.3092114 32.9445022,42.3981104 C32.9848861,42.1589873 33.2115967,41.9955988 33.4547244,42.0303975 C34.3446978,42.0437035 35.2428711,42.0437035 36.1333911,42.0303975 C36.3772448,42.0057448 36.5981212,42.1734134 36.6365067,42.4123155 C36.9406356,43.277205 37.2584311,44.1422744 37.5687556,45.006265 C37.74788,45.5169274 37.5479822,45.8513754 37.0585333,46.0212965 C36.8316459,46.0859212 36.6007793,46.1360721 36.3673644,46.1714385 C36.2090133,46.2140536 35.9741289,46.1714385 35.9876133,46.4440315 C36.0083867,46.7033186 36.2224978,46.6749085 36.3885022,46.6749085 C37.0858667,46.6821009 37.7761244,46.6749085 38.4736711,46.6749085 L40.6135067,46.6749085 C40.7647511,46.6749085 40.9509822,46.709612 40.98524,46.4839495 C41.01312,46.2521735 40.8826489,46.1642461 40.6754622,46.1437476" id="Path_2"></path>
                    <path d="M20.0909111,42.9150662 C19.6625067,44.653836 18.2819911,45.8393281 16.3918,46.1173155 C15.6459954,46.2274281 14.8880791,46.2319086 14.1409911,46.1306215 C13.2087422,46.001877 12.9053422,45.6679685 12.8991467,44.7417634 L12.8991467,36.8194826 C12.9055244,36.6152177 12.8370089,36.3638423 13.1817733,36.348918 C14.3274044,36.2885016 15.4739467,36.2077666 16.6122889,36.4580631 C18.51068,36.8665931 19.6697956,38.0184606 20.0836222,39.8920883 C20.3204537,40.8858596 20.3229473,41.9200143 20.0909111,42.9148864 M6.59553333,41.2748328 C5.90618667,41.2676404 5.20882222,41.2676404 4.5182,41.2748328 C4.26308889,41.2748328 4.14646667,41.1860063 4.23557333,40.9204259 C4.60748889,39.7759306 4.98815111,38.6319748 5.36079556,37.4864006 C5.40886374,37.4749308 5.45752809,37.466047 5.50657333,37.4597886 C5.95556889,38.6177697 6.39654667,39.7829432 6.85920889,40.9461388 C6.96981778,41.233836 6.84572444,41.2818454 6.59644444,41.274653 M20.8644444,38.0394984 C19.7740267,36.6420095 18.2063689,36.1243344 16.5146178,35.9074826 C14.4717244,35.6472965 12.4359378,35.9279811 10.3994222,35.8941767 C10.2472667,35.8941767 10.0475511,35.8666656 10.0475511,36.103836 C10.0475511,36.3151136 10.2337822,36.3151136 10.3859378,36.355571 C11.3380489,36.6157571 11.4964,36.8137287 11.4964,37.7940568 C11.4964,40.1589274 11.4942741,42.5255363 11.4900222,44.8938833 C11.5025232,45.1290367 11.4837773,45.3647932 11.4342622,45.5951451 C11.3099867,46.0782965 10.9167511,46.1786309 10.537,45.8402271 C10.2193867,45.55253 10.0681422,45.1724101 9.91598667,44.7825804 C8.83267556,41.9487634 7.71437778,39.1214196 6.67917333,36.2733975 C6.38215111,35.450224 5.78828889,35.7503281 5.27788444,35.7032177 C4.66324889,35.6561073 5.13210667,36.1311672 4.99434667,36.3221262 C4.95514802,36.3896855 4.92721509,36.4630256 4.91161778,36.5393375 C4.02784,39.1154858 3.12347111,41.6819243 2.26757333,44.2641861 C1.95087111,45.2108896 1.50224,45.979041 0.403804444,46.1637066 C0.333288743,46.1635412 0.266175303,46.1935996 0.219876572,46.2460833 C0.173577841,46.298567 0.15265711,46.3683031 0.162542222,46.4371987 C0.162542222,46.6218644 0.266044444,46.6743691 0.425306667,46.6743691 C1.63307556,46.6743691 2.84795111,46.6743691 4.05572,46.6680757 C4.20787556,46.6680757 4.32486222,46.6141325 4.33105778,46.4371987 C4.33725333,46.260265 4.21425333,46.2050631 4.06993333,46.1771924 C3.93321855,46.1624471 3.79743701,46.1402364 3.66321333,46.1106625 C2.92430222,45.9321104 2.68231111,45.5316719 2.91081778,44.8088328 C3.16592889,44.0113722 3.46240444,43.2220032 3.71077333,42.4182492 C3.73159676,42.294482 3.80153581,42.184002 3.90511941,42.1112483 C4.00870302,42.0384947 4.13739383,42.0094637 4.26272444,42.0305773 C5.11916889,42.0447823 5.96814222,42.0510757 6.82385778,42.025183 C7.10453321,41.9809854 7.37013524,42.1644623 7.42409778,42.4398265 C7.72112,43.290511 8.04511111,44.1278896 8.37001333,44.9733596 C8.55624444,45.4493186 8.38349778,45.7769338 7.94889778,45.9741861 C7.7073865,46.0576218 7.46062039,46.1254343 7.21016889,46.1771924 C7.03742222,46.2261009 6.74768889,46.130082 6.76208444,46.4373785 C6.77556889,46.7712871 7.07186222,46.6745489 7.2652,46.6745489 C8.77764444,46.6817413 10.2826178,46.6745489 11.7874089,46.6745489 C13.1192711,46.6745489 14.4449378,46.648836 15.7706044,46.6817413 C17.31676,46.7306498 18.6413333,46.2142334 19.8356178,45.2856909 C22.2034133,43.4251893 22.6600622,40.3358612 20.8642622,38.0393186" id="Path_3"></path>
                    <path d="M3.63496889,53.5701104 C3.44873778,53.4884763 3.46222222,53.3383344 3.45493333,53.1820789 L3.45493333,52.1316246 C3.4697457,51.8387052 3.46743371,51.5451868 3.44800889,51.25253 C3.39224889,50.7418675 3.64061778,50.6052114 4.10400889,50.6273281 C5.3054,50.6868454 5.98089778,51.68947 5.55376889,52.8109495 C5.31888444,53.4201483 4.22810222,53.8419842 3.63515111,53.5693912 M6.51426222,55.5034353 C6.21724,55.1078517 5.96759556,54.6854763 5.67913778,54.2904322 C5.38758222,53.9094132 5.29847556,53.6510252 5.83657778,53.3509211 C6.48547111,52.9904006 6.69302222,52.343082 6.56109333,51.6263565 C6.42971111,50.9594385 5.95447556,50.5714069 5.31196,50.4363691 C4.23520889,50.2038738 3.14552,50.3326183 2.05473778,50.3743344 C1.95761333,50.3743344 1.84682222,50.3957319 1.84682222,50.5235773 C1.84734747,50.5643834 1.86436961,50.6032919 1.89410519,50.6316548 C1.92384076,50.6600177 1.96382593,50.6754848 2.00517333,50.6746183 C2.61980889,50.6868454 2.60012889,51.1167729 2.60012889,51.5456215 L2.60012889,55.7069811 C2.60012889,56.0275836 2.60012889,56.3409937 2.296,56.5461577 C2.26720889,56.8178517 2.48223111,56.7299243 2.60577778,56.7439495 C2.98644,56.7910599 3.37256889,56.6614164 3.73883556,56.818571 L3.79350222,56.8399685 L3.84889778,56.8246845 C3.98756889,56.8050852 4.13243556,56.8104795 4.22864889,56.6887476 C3.55187556,56.5519117 3.40864889,56.0892587 3.45566222,55.4908486 C3.47643556,55.1835521 3.44217778,54.8629495 3.46295111,54.5574511 C3.47643556,54.337183 3.32428,54.0307855 3.65647111,53.9500505 C3.96345088,53.8370504 4.30917848,53.9172673 4.53296,54.1534164 C4.68420444,54.337183 4.80210222,54.542347 4.93384889,54.733306 C5.29209778,55.2784921 5.60971111,55.8432776 6.06599556,56.3156404 C6.65184,56.9269968 7.44651111,57.1247886 8.11599556,56.7764953 C7.34300889,56.6006404 6.929,56.0412492 6.51499111,55.5039748" id="Path_4"></path>
                    <path d="M15.8526044,52.5807918 C14.4872133,53.5958233 14.3128267,55.216817 13.5540533,56.504082 C13.4569289,56.668429 13.4640356,56.9480347 13.2300622,56.9552271 C12.9816933,56.9624196 12.9951778,56.6736435 12.9124489,56.5191861 C12.6983378,56.1036435 12.5048178,55.672817 12.24916,55.142735 C11.9594267,55.728918 11.7245422,56.1967855 11.4838267,56.6612366 C11.42916,56.7766751 11.4010978,56.9489338 11.2287156,56.9489338 C11.04868,56.9489338 11.0424844,56.7775741 10.9803467,56.6612366 C10.4475289,55.6124006 9.92291111,54.5628454 9.39191556,53.5140095 C9.24613778,53.2281104 9.11566667,52.9429306 8.76999111,52.8470915 C8.67377778,52.8186814 8.56954667,52.784877 8.59086667,52.6570315 C8.61965778,52.5196562 8.73591556,52.5556183 8.83304,52.5556183 L9.84054667,52.5556183 C10.1091422,52.5611924 10.5448356,52.4723659 10.0264133,52.8942019 C9.93001778,52.9760158 9.99944444,53.0779685 10.0409911,53.1669748 C10.4890756,54.0532618 10.9444489,54.9377508 11.3936267,55.8382429 C12.4975289,54.9447634 11.6004489,53.3036309 10.5789111,52.6295205 C11.1243022,52.4856719 11.6281467,52.5878044 12.1250667,52.5611924 C12.1661641,52.5642984 12.2017805,52.5904672 12.2165768,52.6284285 C12.2313731,52.6663899 12.2227072,52.7093649 12.1943111,52.7388454 C11.6562089,53.2344038 12.3734356,53.4812839 12.4364844,53.8682366 C12.60832,53.4668991 13.2779867,53.1063785 12.4490578,52.6144164 C12.956789,52.5233355 13.4778225,52.5329936 13.9817289,52.6428265 C13.2163956,52.990041 12.8712667,53.6925615 12.7191111,54.3727855 C12.6012133,54.8496435 13.1187244,55.333694 13.3949733,55.9454101 C13.8304844,54.937571 14.1887333,54.0582965 14.5963644,53.194306 C14.7764,52.8062744 14.3345111,52.8550032 14.2093244,52.608123 C14.7543568,52.5388323 15.3055152,52.5296653 15.8526044,52.5807918" id="Path_5"></path>
                    <path d="M32.3362444,55.6803691 C32.0671022,56.3339811 31.50112,56.5718707 30.8108622,56.5718707 C30.1692578,56.5718707 29.9684489,56.3960158 29.94148,55.7424038 C29.9207067,55.3545521 29.9341911,54.9652618 29.9341911,54.5696782 L29.9341911,53.2836719 C29.9341911,53.0661009 30.0034356,52.8866498 30.2439689,52.8600379 C30.9684844,52.7802019 31.6452578,52.8947413 32.1285111,53.4737319 C32.6944933,54.1406498 32.6531289,54.9194101 32.3355156,55.6805489 M33.4541778,54.4542397 C33.36416,53.537205 32.8043733,52.9161388 31.8324,52.6764511 C30.8522267,52.4338864 29.8649467,52.5608328 28.8785778,52.5737792 C28.78856,52.5737792 28.6635556,52.5541798 28.6292978,52.6759117 C28.5746311,52.8472713 28.7264222,52.8686688 28.8297422,52.8862902 C29.1473556,52.9513817 29.1674,53.1878328 29.1674,53.4257224 C29.1754178,54.2631009 29.1754178,55.1031767 29.1674,55.9396562 C29.1674,56.2593596 29.1061733,56.5319527 28.7118444,56.5718707 C28.6083422,56.5797823 28.4913556,56.6078328 28.4977333,56.7299243 C28.5121289,56.8870789 28.6569956,56.8649621 28.7739822,56.8737729 L29.8379778,56.8737729 C31.1213689,56.9332902 31.6530933,56.8737729 32.2263644,56.6011798 C33.0614677,56.2209564 33.5562767,55.3560517 33.4547244,54.4540599" id="Path_6"></path>
                    <path d="M26.4962044,52.792429 C26.48272,52.8066341 26.48272,52.8271325 26.4754311,52.8474511 C26.2206844,53.2347634 26.2622311,53.677817 26.2551244,54.1005521 C26.2478356,54.9192303 26.2686089,55.7425836 26.2686089,56.5594637 C26.2686089,56.6891073 26.3378533,56.8595678 26.1651067,56.9199842 C25.99236,56.9883123 25.9311333,56.8178517 25.8411156,56.7221924 C24.8952,55.7353912 23.9494667,54.7336656 22.9281111,53.7603502 C22.8734444,54.5977287 22.7967289,55.4227003 22.9137156,56.2388612 C22.9694756,56.5932681 23.3771067,56.5932681 23.5841111,56.7973533 C23.0068808,56.9016339 22.415505,56.9043124 21.8373289,56.805265 C22.3276889,56.4972492 22.4997067,56.0621073 22.4510533,55.4973218 C22.4183326,55.027616 22.4162023,54.5563221 22.4446756,54.086347 C22.45816,53.4877571 22.5552844,52.8546435 21.5124267,52.7179874 C22.5824356,52.4043975 22.9137156,52.5270284 23.44544,53.1067382 C24.1905467,53.9295521 24.9781111,54.7207192 25.8474933,55.6323596 C25.8474933,54.7611767 25.8609778,54.046429 25.8411156,53.3376151 C25.8338267,53.0319369 25.6880489,52.8109495 25.3226933,52.8269527 C25.2057067,52.8269527 25.08872,52.7922492 25.0814311,52.5737792 L26.8220178,52.5737792 C26.8766844,52.8544637 26.5871333,52.6964101 26.4971156,52.7922492" id="Path_7"></path>
                    <path d="M18.4343289,54.9519558 C18.2067333,55.0540883 17.8962267,54.9866593 17.6199778,54.9652618 C17.50208,54.9589685 17.50208,54.8214132 17.5443556,54.7262934 C17.7083556,54.3657729 17.7783289,53.9502303 18.0618667,53.6233344 C18.2273126,53.8533638 18.3402712,54.1160428 18.3929644,54.3932839 C18.4551022,54.5770505 18.6961822,54.8284259 18.4343289,54.951776 M20.3658844,56.571511 C20.02112,56.5191861 19.8906489,56.273205 19.7791289,55.9801136 C19.41432,54.9936719 19.0418578,53.9980599 18.6564578,53.0182713 C18.5863022,52.8273123 18.6078044,52.4800978 18.3738311,52.5067098 C18.1311111,52.5408738 17.9304844,52.7859558 17.8278933,53.0657413 C17.5713244,53.7396719 17.3156667,54.4189968 17.0188267,55.0815994 C16.7362,55.7154322 16.6461822,56.4970694 15.8110578,56.7971735 L17.5649467,56.7971735 C17.2187244,56.5454385 16.81164,56.504082 17.0403289,56.054735 C17.2329378,55.6800095 17.2608178,55.2786719 17.8967733,55.2847855 C18.5248933,55.3007886 18.8561733,55.454347 19.0495111,56.0759527 C19.1737867,56.4781893 18.9594933,56.5724101 18.6759556,56.7029527 C18.6957636,56.761015 18.7188819,56.8179259 18.7452,56.8734132 C19.2905911,56.8734132 19.8296044,56.8734132 20.3740844,56.8655016 C20.4371333,56.8655016 20.5468311,56.7980726 20.5532089,56.7509621 C20.5748933,56.6364227 20.4713911,56.5866151 20.3669778,56.5724101" id="Path_8"></path>
                    <path d="M37.2719156,54.9523155 C36.9966046,55.0586576 36.690782,55.0586576 36.4154711,54.9523155 C36.2984844,54.9194101 36.3389378,54.7888675 36.3812133,54.7005804 C36.5269911,54.3445552 36.6709467,53.9919464 36.8843289,53.4812839 C37.05088,53.9164259 37.1758844,54.1757129 37.2505956,54.4474069 C37.29196,54.6108549 37.5332222,54.8284259 37.2713689,54.951776 L37.2719156,54.9523155 Z M39.3984489,56.8113785 C38.5902933,56.5254795 38.5489289,55.7684763 38.3076667,55.1623344 C37.9978889,54.3871703 37.7063333,53.5958233 37.4302667,52.8068139 C37.31328,52.4592397 37.1962933,52.3828202 36.9348044,52.6759117 C36.8216079,52.7805892 36.7298101,52.9057207 36.6643867,53.0445237 C36.3054089,53.959041 35.9336756,54.8559369 35.56012,55.7614637 C35.4143422,56.1237823 35.2847822,56.5039022 34.8068133,56.570612 C34.7243029,56.5745724 34.658594,56.6401929 34.6555689,56.721653 C34.6538151,56.7611144 34.6694505,56.7993944 34.6984454,56.8266267 C34.7274403,56.853859 34.766958,56.8673795 34.8068133,56.8637035 L36.2368933,56.8637035 C35.8084889,56.4357539 35.7600178,55.8842744 36.1189956,55.4624385 C36.2846356,55.2705804 37.3960089,55.2421703 37.58224,55.427735 C37.7581599,55.6228943 37.8465234,55.8800146 37.8271963,56.1405094 C37.8078692,56.4010042 37.6824979,56.6426837 37.4796489,56.8104795 L39.3984489,56.8113785 Z" id="Path_9"></path>
                </g>
            </g>
        </g>
    </g>
</svg>