<?xml version="1.0" encoding="UTF-8" standalone="no"?>
<svg width="41px" height="41px" viewBox="0 0 41 41" version="1.1" xmlns="http://www.w3.org/2000/svg" xmlns:xlink="http://www.w3.org/1999/xlink">
    <!-- Generator: Sketch 41.2 (35397) - http://www.bohemiancoding.com/sketch -->
    <title>Home</title>
    <desc>Created with Sketch.</desc>
    <defs></defs>
    <g id="Page-1" stroke="none" stroke-width="1" fill="none" fill-rule="evenodd">
        <g id="Home-page" transform="translate(-793.000000, -24.000000)">
            <g id="Home" transform="translate(793.000000, 24.000000)">
                <circle id="Oval-2" fill="#4D8885" cx="20.5" cy="20.5" r="20.5"></circle>
                <path d="M28.7983333,17.7207162 L19.8095926,11.124976 C19.6362593,10.99781 19.4007778,10.99781 19.2275185,11.124976 L10.2387037,17.7207162 C10.0191481,17.881845 9.97144444,18.1908144 10.1322222,18.4108493 C10.293,18.6308843 10.6013333,18.6786179 10.8208519,18.5175633 L19.5185185,12.1353624 L28.2161852,18.5175262 C28.3038889,18.5819258 28.4058148,18.6129192 28.5068519,18.6129192 C28.6585556,18.6129192 28.8082593,18.542952 28.9047778,18.4108122 C29.0655926,18.1908144 29.0178889,17.881845 28.7983333,17.7207162 Z" id="Shape" fill="#FFFFFF"></path>
                <path d="M26.4165185,18.6293253 C26.1444444,18.6293253 25.9238148,18.8503996 25.9238148,19.1231048 L25.9238148,26.9827838 L21.9822593,26.9827838 L21.9822593,22.6924738 C21.9822593,21.3309891 20.877,20.2233908 19.5185556,20.2233908 C18.1601111,20.2233908 17.0548519,21.3310633 17.0548519,22.6924738 L17.0548519,26.982821 L13.1132593,26.982821 L13.1132593,19.1231419 C13.1132593,18.8504367 12.8926296,18.6293624 12.6205556,18.6293624 C12.3484815,18.6293624 12.1278519,18.8504367 12.1278519,19.1231419 L12.1278519,27.4766376 C12.1278519,27.7493428 12.3484815,27.970417 12.6205556,27.970417 L17.5475556,27.970417 C17.8066667,27.970417 18.0187037,27.7697948 18.0383333,27.5150917 C18.0395185,27.503548 18.0402593,27.4909279 18.0402593,27.4766376 L18.0402593,22.6925109 C18.0402593,21.875583 18.7034074,21.2109869 19.5185556,21.2109869 C20.3337037,21.2109869 20.9968519,21.8756201 20.9968519,22.6925109 L20.9968519,27.4766376 C20.9968519,27.4908537 20.9975926,27.5032511 20.9987778,27.5146463 C21.0181852,27.7695349 21.2302963,27.970417 21.4895556,27.970417 L26.4165556,27.970417 C26.6886667,27.970417 26.9092593,27.7493428 26.9092593,27.4766376 L26.9092593,19.1231419 C26.9092222,18.8503996 26.6886296,18.6293253 26.4165185,18.6293253 Z" id="Shape" fill="#FFFFFF"></path>
            </g>
        </g>
    </g>
</svg>