<?xml version="1.0" encoding="utf-8"?>
<!-- Generator: Adobe Illustrator 17.0.0, SVG Export Plug-In . SVG Version: 6.00 Build 0)  -->
<!DOCTYPE svg PUBLIC "-//W3C//DTD SVG 1.1//EN" "http://www.w3.org/Graphics/SVG/1.1/DTD/svg11.dtd">
<svg version="1.1" id="Layer_1" xmlns="http://www.w3.org/2000/svg" xmlns:xlink="http://www.w3.org/1999/xlink" x="0px" y="0px"
	 width="121.596px" height="36.054px" viewBox="0 0 121.596 36.054" enable-background="new 0 0 121.596 36.054"
	 xml:space="preserve">
<g>
	<g>
		<g id="artix">
			<path id="A" fill="#AAB2BC" d="M47.388,23.364H42.93v-0.743c-0.99,0.633-2.202,1.018-3.66,1.018
				c-3.606,0-6.634-2.999-6.634-6.963c0-3.991,3.028-6.964,6.634-6.964c1.458,0,2.67,0.385,3.66,1.018v-0.716h4.459V23.364z
				 M42.93,18.74v-4.128c-0.826-0.964-1.789-1.266-2.779-1.266c-1.818,0-3.139,1.486-3.139,3.331c0,1.844,1.321,3.302,3.139,3.302
				C41.141,19.979,42.104,19.704,42.93,18.74z"/>
			<path id="T" fill="#AAB2BC" d="M73.132,23.117c-1.734,0.55-2.725,0.661-4.046,0.661c-3.222,0-5.369-2.368-5.369-5.973v-3.963
				h-2.614v-3.827h2.614V5.474h4.461v4.541h4.541v3.827h-4.541v3.825c0,1.349,0.769,2.009,2.09,2.009
				c0.635,0,1.376-0.137,2.368-0.33L73.132,23.117z"/>
			<path id="R" fill="#AAB2BC" d="M59.496,14.034c-2.174,0.082-3.551,0.661-4.596,1.706v7.625h-4.459v-13.35H54.9v1.432
				c1.184-1.018,2.615-1.651,4.596-1.651V14.034z"/>
			<path id="I" fill="#AAB2BC" d="M74.908,5.418c0-1.457,1.155-2.531,2.613-2.531c1.432,0,2.614,1.074,2.614,2.531
				c0,1.432-1.182,2.506-2.614,2.506C76.063,7.924,74.908,6.85,74.908,5.418z M79.78,23.364h-4.461v-13.35h4.461V23.364z"/>
			<path id="X" fill="#AAB2BC" d="M96.213,23.364h-4.899l-2.67-3.825l-2.7,3.825h-4.899l4.679-6.661l-4.679-6.689h5.093l2.476,3.523
				l2.506-3.523h5.093l-4.68,6.689L96.213,23.364z"/>
		</g>
		<g>
			<path id="C" fill="#37BC9B" d="M24.51,20.248c-2.006,0-3.403-1.468-3.403-3.572c0-2.087,1.397-3.544,3.403-3.544
				c1.44,0,2.545,0.778,2.897,2.01h3.537c-0.454-3.009-3.044-5.075-6.434-5.075c-0.679,0-1.327,0.077-1.932,0.232
				c-1.795,0.44-3.238,1.503-4.104,2.971c-0.581,0.978-0.905,2.133-0.905,3.407c0,3.847,2.921,6.638,6.941,6.638
				c0.208,0,0.415-0.007,0.616-0.025c1.971-0.148,3.629-1.017,4.674-2.365c0.591-0.76,0.993-1.668,1.144-2.685h-3.537
				C27.055,19.47,25.949,20.248,24.51,20.248z"/>
			<g id="Compass">
				<path id="Arrow2" fill="#37BC9B" d="M18.168,12.427l-3.312-9.035l0.162,0.144l6.937,6.202
					C20.368,10.22,19.062,11.164,18.168,12.427z"/>
				<path id="Arrow1" fill="#37BC9B" d="M33.373,30.659l-0.151-0.134l-7.395-6.61c1.739-0.264,3.217-1.052,4.259-2.221
					L33.373,30.659z"/>
				<path id="Point" fill="#37BC9B" d="M25.013,16.691c0,0.386-0.314,0.702-0.702,0.702c-0.386,0-0.701-0.315-0.701-0.702
					s0.314-0.702,0.701-0.702C24.699,15.989,25.013,16.304,25.013,16.691z"/>
			</g>
		</g>
	</g>
	<g>
		<g>
			<path fill="#37BC9B" d="M52.848,29.791h-0.911v-1.375h-1.494v1.375h-0.911v-3.667h0.911v1.472h1.494v-1.472h0.911V29.791z"/>
			<path fill="#37BC9B" d="M56.136,29.791h-0.874v-0.173c-0.21,0.162-0.437,0.253-0.717,0.253c-0.663,0-1.116-0.458-1.116-1.202
				v-1.493h0.873v1.359c0,0.372,0.194,0.55,0.48,0.55c0.162,0,0.329-0.092,0.48-0.259v-1.65h0.874V29.791z"/>
			<path fill="#37BC9B" d="M61.074,28.298v1.493h-0.879v-1.354c0-0.372-0.178-0.55-0.469-0.55c-0.135,0-0.269,0.059-0.399,0.216
				c0.005,0.065,0.011,0.129,0.011,0.194v1.493h-0.874v-1.354c0-0.372-0.183-0.55-0.469-0.55c-0.135,0-0.264,0.065-0.394,0.232
				v1.671h-0.873v-2.615h0.873v0.156c0.178-0.151,0.361-0.237,0.652-0.237c0.329,0,0.609,0.124,0.804,0.351
				c0.275-0.243,0.539-0.351,0.927-0.351C60.611,27.095,61.074,27.553,61.074,28.298z"/>
			<path fill="#37BC9B" d="M64.389,29.791h-0.873v-0.146c-0.194,0.124-0.431,0.2-0.717,0.2c-0.706,0-1.299-0.588-1.299-1.364
				c0-0.782,0.593-1.364,1.299-1.364c0.286,0,0.523,0.076,0.717,0.199v-0.14h0.873V29.791z M63.516,28.885v-0.809
				c-0.162-0.189-0.351-0.248-0.545-0.248c-0.356,0-0.615,0.291-0.615,0.652c0,0.361,0.259,0.647,0.615,0.647
				C63.165,29.128,63.354,29.074,63.516,28.885z"/>
			<path fill="#37BC9B" d="M67.694,28.298v1.493h-0.879v-1.354c0-0.372-0.189-0.55-0.475-0.55c-0.162,0-0.334,0.092-0.485,0.264
				v1.639h-0.873v-2.615h0.873v0.178c0.21-0.167,0.442-0.259,0.722-0.259C67.241,27.095,67.694,27.553,67.694,28.298z"/>
			<path fill="#37BC9B" d="M70.571,28.729v1.062H69.66v-3.667h1.607c0.906,0,1.515,0.496,1.515,1.289
				c0,0.512-0.264,0.917-0.701,1.138l0.943,1.24h-1.1l-0.787-1.062H70.571z M71.245,27.909c0.351,0,0.631-0.194,0.631-0.496
				c0-0.297-0.28-0.485-0.631-0.485h-0.674v0.981H71.245z"/>
			<path fill="#37BC9B" d="M75.763,28.723l0.005,0.016h-1.866c0.07,0.237,0.254,0.421,0.588,0.421c0.184,0,0.323-0.07,0.399-0.189
				h0.863c-0.124,0.539-0.626,0.879-1.272,0.879c-0.857,0-1.429-0.572-1.429-1.37c0-0.793,0.555-1.364,1.391-1.364
				c0.76,0,1.337,0.523,1.337,1.31C75.779,28.524,75.779,28.626,75.763,28.723z M73.892,28.227h1.068
				c-0.048-0.286-0.237-0.437-0.518-0.437C74.145,27.791,73.956,27.963,73.892,28.227z"/>
			<path fill="#37BC9B" d="M76.841,28.896c0.038,0.227,0.227,0.329,0.501,0.329c0.232,0,0.372-0.07,0.372-0.184
				c0-0.086-0.081-0.156-0.253-0.183l-0.528-0.092c-0.453-0.075-0.766-0.329-0.766-0.787c0-0.55,0.469-0.873,1.165-0.873
				c0.555,0,1.186,0.216,1.224,0.906h-0.776c-0.016-0.199-0.2-0.291-0.442-0.291c-0.226,0-0.329,0.086-0.329,0.189
				c0,0.086,0.065,0.167,0.27,0.205l0.49,0.081c0.491,0.092,0.814,0.329,0.814,0.793c0,0.604-0.544,0.884-1.224,0.884
				c-0.685,0-1.24-0.286-1.294-0.981L76.841,28.896z"/>
			<path fill="#37BC9B" d="M81.73,28.481c0,0.798-0.593,1.391-1.418,1.391c-0.825,0-1.418-0.593-1.418-1.391
				c0-0.787,0.593-1.364,1.418-1.364C81.137,27.117,81.73,27.694,81.73,28.481z M80.905,28.486c0-0.34-0.237-0.615-0.588-0.615
				c-0.356,0-0.593,0.275-0.593,0.615c0,0.35,0.237,0.631,0.593,0.631C80.668,29.117,80.905,28.836,80.905,28.486z"/>
			<path fill="#37BC9B" d="M84.857,29.791h-0.874v-0.173c-0.21,0.162-0.437,0.253-0.717,0.253c-0.663,0-1.116-0.458-1.116-1.202
				v-1.493h0.873v1.359c0,0.372,0.194,0.55,0.48,0.55c0.162,0,0.329-0.092,0.48-0.259v-1.65h0.874V29.791z"/>
			<path fill="#37BC9B" d="M87.223,27.963c-0.426,0.016-0.696,0.129-0.901,0.334v1.493h-0.873v-2.615h0.873v0.28
				c0.232-0.199,0.512-0.323,0.901-0.323V27.963z"/>
			<path fill="#37BC9B" d="M89.401,28.718h0.825c-0.059,0.674-0.615,1.133-1.337,1.133c-0.825,0-1.429-0.572-1.429-1.37
				c0-0.793,0.604-1.364,1.429-1.364c0.722,0,1.278,0.458,1.337,1.132h-0.825c-0.043-0.237-0.243-0.394-0.512-0.394
				c-0.372,0-0.598,0.27-0.598,0.626c0,0.356,0.226,0.631,0.598,0.631C89.158,29.111,89.358,28.955,89.401,28.718z"/>
			<path fill="#37BC9B" d="M93.299,28.723l0.005,0.016h-1.866c0.07,0.237,0.254,0.421,0.588,0.421c0.184,0,0.323-0.07,0.399-0.189
				h0.863c-0.124,0.539-0.626,0.879-1.272,0.879c-0.857,0-1.429-0.572-1.429-1.37c0-0.793,0.555-1.364,1.391-1.364
				c0.76,0,1.337,0.523,1.337,1.31C93.315,28.524,93.315,28.626,93.299,28.723z M91.427,28.227h1.068
				c-0.048-0.286-0.237-0.437-0.518-0.437C91.681,27.791,91.492,27.963,91.427,28.227z"/>
			<path fill="#37BC9B" d="M94.376,28.896c0.038,0.227,0.227,0.329,0.501,0.329c0.232,0,0.372-0.07,0.372-0.184
				c0-0.086-0.081-0.156-0.253-0.183l-0.528-0.092c-0.453-0.075-0.766-0.329-0.766-0.787c0-0.55,0.469-0.873,1.165-0.873
				c0.555,0,1.186,0.216,1.224,0.906h-0.776c-0.016-0.199-0.2-0.291-0.442-0.291c-0.226,0-0.329,0.086-0.329,0.189
				c0,0.086,0.065,0.167,0.27,0.205l0.49,0.081c0.491,0.092,0.814,0.329,0.814,0.793c0,0.604-0.544,0.884-1.224,0.884
				c-0.685,0-1.24-0.286-1.294-0.981L94.376,28.896z"/>
		</g>
	</g>
</g>
</svg>
