<?xml version="1.0" encoding="UTF-8" standalone="no"?>
<svg width="45px" height="64px" viewBox="0 0 25 30" version="1.1" xmlns="http://www.w3.org/2000/svg" xmlns:xlink="http://www.w3.org/1999/xlink">
    <!-- Generator: Sketch 41.2 (35397) - http://www.bohemiancoding.com/sketch -->
    <title>svg6013</title>
    <desc>Created with Sketch.</desc>
    <defs></defs>
    <g id="Page-1" stroke="none" stroke-width="1" fill="none" fill-rule="evenodd">
        <g id="Profile" transform="translate(-36.000000, -130.000000)">
            <g id="svg6013" transform="translate(36.000000, 130.000000)">
                <path d="M0.337837838,33.6565657 C0.337837838,33.6565657 -0.674742652,25.7183331 7.13063057,25.0008762 L9.00450524,25.0008762 C9.00450524,25.0008762 9.61782095,24.5979136 10.0495493,24.5979136 L10.0495493,23.4622892 C10.0495493,23.4622892 12.3885129,24.6478546 14.8063067,23.4989222 L14.8063067,24.5246478 C14.8063067,24.5246478 14.9090664,24.3283165 15.9594587,25.0375092 L18.7702694,25.0375092 C18.7702694,25.0375092 24.7466216,25.7869272 24.7466216,33.6565657 L0.337837838,33.6565657 L0.337837838,33.6565657 Z" id="body-bg" fill="#FFFFFF"></path>
                <path d="M24.5153659,33.9645121 L0.485265541,33.9645121 L0.019228125,33.9645121 L0.135558361,31.9442753 C0.36269527,27.9997404 3.41992247,24.9894286 6.91849738,24.9894286 L9.32421039,24.9894286 C9.16814291,25.120648 9.05377154,25.2567541 8.97151841,25.3923912 L7.13088834,25.3923912 C3.75898209,25.3923912 0.812442905,28.2899822 0.593528209,32.086814 L0.512723649,33.4882836 L24.4518718,33.4882836 L24.4071033,32.086814 C24.1881886,28.2899822 21.2416494,25.3923912 17.8697405,25.3923912 L16.0275433,25.3923912 C15.9570952,25.2577524 15.8569207,25.1216568 15.7170631,24.9894286 L18.0607616,24.9894286 C21.5593364,24.9894286 24.6165637,27.9997404 24.8437005,31.9442753 L24.9600307,33.9645121 L24.5153659,33.9645121 L24.5153659,33.9645121 Z M15.0042585,25.3923912 L14.8783787,25.3923912 L14.8783787,24.9894286 L15.0182441,24.9894286 C15.0098826,25.0941578 15.0045085,25.2261607 15.0042585,25.3923912 L15.0042585,25.3923912 Z M9.93575017,24.9894286 L10.0855853,24.9894286 L10.0855853,25.3923912 L9.95608666,25.3923912 C9.95415093,25.2212635 9.94643649,25.0899445 9.93575017,24.9894286 L9.93575017,24.9894286 Z" id="Rounded-Rectangle-13-copy-4" fill="#3B434F"></path>
                <path d="M13.6366018,30.594277 C13.78668,30.594277 13.9083423,30.7170361 13.9083423,30.8684705 C13.9083423,31.0199022 13.78668,31.1426641 13.6366018,31.1426641 C13.4865264,31.1426641 13.364864,31.0199022 13.364864,30.8684705 C13.364864,30.7170361 13.4865264,30.594277 13.6366018,30.594277 L13.6366018,30.594277 Z" id="Ellipse-5" fill="#3B434F"></path>
                <path d="M13.6366018,32.2793932 C13.78668,32.2793932 13.9083423,32.4021551 13.9083423,32.5535867 C13.9083423,32.7050212 13.78668,32.8277803 13.6366018,32.8277803 C13.4865264,32.8277803 13.364864,32.7050212 13.364864,32.5535867 C13.364864,32.4021551 13.4865264,32.2793932 13.6366018,32.2793932 L13.6366018,32.2793932 Z" id="Ellipse-5-copy" fill="#3B434F"></path>
                <path d="M16.5360348,27.150776 L14.6981986,29.9348837 C14.1982465,28.3596113 12.752252,28.945791 12.752252,28.945791 L12.752252,33.5983109 C12.752252,33.7196312 12.6393138,33.8179802 12.5,33.8179802 C12.3606862,33.8179802 12.247748,33.7196312 12.247748,33.5983109 L12.247748,28.9456811 C12.2360487,28.9409647 10.8015601,28.3660386 10.3041881,29.9348837 L8.46834696,27.150776 C8.46834696,27.150776 7.75820498,25.315402 9.90822247,24.5132001 L9.90822247,23.6706394 L10.3147764,23.6706394 L10.3147764,26.3222726 C10.3669708,26.7787212 10.6761236,28.0793027 12.5,28.5061955 C14.3258584,28.0793027 14.635349,26.7787212 14.6876,26.3222726 L14.6876,23.6706394 L15.0945947,23.6706394 L15.0945947,24.5132001 C17.2469474,25.315402 16.5360348,27.150776 16.5360348,27.150776 L16.5360348,27.150776 Z M10.2828774,27.3972342 C10.1848834,27.2844217 10.0437396,27.0042415 10.0437396,27.0042415 C10.0437396,27.0042415 9.90822247,26.5457596 9.90822247,26.3448481 L9.90822247,25.4156638 C9.87757348,24.9965922 9.80023311,24.9894286 9.80023311,24.9894286 C8.19602914,25.7926549 8.90030988,27.0408744 8.90030988,27.0408744 L10.2321959,29.1655889 C10.7523068,28.2696992 11.3121033,28.4329296 11.3121033,28.4329296 C10.81785,28.17685 10.4937012,27.779416 10.2828774,27.3972342 L10.2828774,27.3972342 Z M15.2027027,24.9894286 C15.2027027,24.9894286 15.1252772,24.9965922 15.0945947,25.4156638 L15.0945947,26.3448481 C15.0945947,26.5457596 14.9589307,27.0042415 14.9589307,27.0042415 C14.9589307,27.0042415 14.8176322,27.2844217 14.7195326,27.3972342 C14.5084794,27.779416 14.1839774,28.17685 13.6891881,28.4329296 C13.6891881,28.4329296 14.2495928,28.2696992 14.7702707,29.1655889 L16.1036027,27.0408744 C16.1036027,27.0408744 16.808649,25.7926549 15.2027027,24.9894286 L15.2027027,24.9894286 Z" id="Shape-2-copy-9" fill="#3B434F"></path>
                <path d="M12.5181302,0.555216909 C17.0010593,0.555216909 20.5394384,4.81390812 20.4243867,9.93082887 L20.302105,15.3692109 C20.193716,20.1898582 16.7099179,24.000336 12.5181302,24.000336 C8.32634231,24.000336 4.84254426,20.1898582 4.73415532,15.3692109 L4.61187365,9.93082887 C4.49682441,4.81390812 8.03520101,0.555216909 12.5181302,0.555216909 L12.5181302,0.555216909 Z" id="2-copy-5" fill="#FFFFFF"></path>
                <path d="M20.7845765,9.76221918 L20.6564465,15.4215336 C20.5428742,20.4380196 16.8924229,24.4032986 12.5001186,24.4032986 C8.10781166,24.4032986 4.45736292,20.4380196 4.34378801,15.4215336 L4.21565549,9.76221918 C4.09510329,4.4374226 7.80274417,0.00572247475 12.5001186,0.00572247475 C17.197493,0.00572247475 20.9051313,4.4374226 20.7845765,9.76221918 L20.7845765,9.76221918 Z M12.4821199,0.591849934 C8.06047593,0.591849934 4.57047128,4.81726982 4.68394561,9.89421422 L4.80455709,15.2901098 C4.91146394,20.0730944 8.34763758,23.8538041 12.4821199,23.8538041 C16.6166022,23.8538041 20.0527732,20.0730944 20.1596802,15.2901098 L20.280289,9.89421422 C20.3937685,4.81726982 16.9037639,0.591849934 12.4821199,0.591849934 L12.4821199,0.591849934 Z" id="2-line" fill="#3B434F"></path>
                <path d="M20.5596846,10.7025578 L20.1993247,16.7103713 C20.1993247,16.7103713 18.5987988,23.6452497 12.4155405,24.4663798 L12.4155405,24.4765645 C12.4033877,24.4750552 12.3916214,24.4730298 12.3795046,24.4714735 C12.3673878,24.4730298 12.3556215,24.4750552 12.3434685,24.4765645 L12.3434685,24.4663798 C6.16021284,23.6452497 4.55968446,16.7103713 4.55968446,16.7103713 L4.19932441,10.7025578 C5.80386596,17.9427282 7.15427914,18.3954902 7.15427914,18.3954902 C6.88100507,16.1999886 9.10022584,16.4173077 9.10022584,16.4173077 C10.4527705,16.6495619 11.5294894,16.7617953 12.3795046,16.8037552 C13.2295222,16.7617953 14.3062385,16.6495619 15.6587833,16.4173077 C15.6587833,16.4173077 17.8780014,16.1999886 17.6047299,18.3954902 C17.6047299,18.3954902 18.9551431,17.9427282 20.5596846,10.7025578 L20.5596846,10.7025578 Z M16.5526261,19.1401448 C16.4477245,17.848692 15.6816611,17.9582004 15.6816611,17.9582004 C14.3197833,18.3655676 13.2507376,18.5918739 12.4155405,18.7068901 L12.4155405,18.6984478 C11.5861918,18.5843697 10.5246338,18.3599211 9.1722978,17.9558921 C9.1722978,17.9558921 8.41159823,17.8472797 8.30743117,19.1281495 C8.30743117,19.1281495 8.00196934,20.4114481 9.0281538,20.9597976 L10.3254498,22.3518528 C10.3254498,22.3518528 11.2119932,22.6374751 11.1903165,21.5459249 C11.1903165,21.5459249 11.1000834,20.7318431 11.6227485,20.593468 L12.4155405,20.593468 L12.4155405,20.6175737 L13.2139258,20.6175737 C13.7402766,20.7570939 13.6494095,21.5779044 13.6494095,21.5779044 C13.6275781,22.6784759 14.520372,22.3904902 14.520372,22.3904902 L15.8268207,20.9869323 C16.8602428,20.43405 16.5526261,19.1401448 16.5526261,19.1401448 L16.5526261,19.1401448 Z" id="1-copy-4" fill="#3B434F" opacity="0.058824"></path>
                <path d="M16.3918908,18.6592968 C15.7368892,19.2374535 14.2574336,19.7875401 12.5360386,19.7875401 C10.814641,19.7875401 9.33518539,19.2374535 8.68018125,18.6592968 C8.68018125,18.6592968 8.6131663,18.4718427 8.71149012,18.3718901 C8.81163361,18.2700877 8.96846926,18.292244 8.96846926,18.292244 C9.62278522,18.8707938 10.8139837,19.3479473 12.5360386,19.3479473 C14.2580909,19.3479473 15.4492894,18.8707938 16.1036053,18.292244 C16.1036053,18.292244 16.2636577,18.2318039 16.3414079,18.3108422 C16.4911579,18.463073 16.3918908,18.6592968 16.3918908,18.6592968 L16.3918908,18.6592968 Z" id="usta" fill="#3B434F"></path>
                <path d="M11.346848,20.6667339 L13.6531546,20.6667339 L13.6531546,21.1216917 L11.346848,21.1216917 L11.346848,20.6667339 L11.346848,20.6667339 Z" id="-" fill="#3B434F"></path>
                <path d="M4.20669088,10.5874919 C4.20569603,10.5875495 4.11821056,10.5165265 3.95300836,10.4636509 C3.87044079,10.4372708 3.76782289,10.4155703 3.65085861,10.4102199 C3.6216478,10.4088836 3.59158387,10.4085666 3.56082145,10.4094548 C3.53005895,10.4103431 3.49859544,10.412434 3.46661385,10.4159058 C3.40265845,10.4228519 3.3366049,10.4353345 3.27013632,10.4547711 C3.00399164,10.5325228 2.73249088,10.7215621 2.5730391,11.1117407 C2.49299747,11.3068406 2.44019485,11.5522481 2.42623514,11.8592958 C2.42274257,11.9360597 2.42167551,12.0166752 2.4232065,12.1013207 C2.42474012,12.1859661 2.42887449,12.2746414 2.43577956,12.3675247 C2.44958209,12.5532836 2.4745065,12.7558771 2.51164307,12.9766391 C2.51083117,12.9764216 2.47700667,13.6437594 2.71169299,14.4105755 C2.93232171,15.1602895 3.46212128,16.0812466 4.44031537,16.344419 C4.32781267,14.4401287 4.32431765,12.5001434 4.20669088,10.5874919 L4.20669088,10.5874919 L4.20669088,10.5874919 Z" id="Shape-11-copy" fill="#FFFFFF"></path>
                <path d="M4.31823218,10.664261 C4.31823218,10.664261 2.61414502,10.1275008 2.67411571,11.9084219 C2.67411571,11.9084219 2.92782399,14.4908137 3.03799654,14.728814 C3.03799654,14.728814 3.70723877,16.2323716 4.8117277,16.2990059 C5.89120456,16.3641308 4.8117277,16.2990059 4.8117277,16.2990059 L4.82513328,16.7836373 C4.82513328,16.7836373 2.88386216,16.5306128 2.50891867,14.2564241 L2.21298319,12.1904336 C2.21298319,12.1904336 1.98320186,9.45629825 4.21209333,10.1514729 C6.38348606,10.828715 4.21209333,10.1514729 4.21209333,10.1514729 L4.31823218,10.664261" id="Shape-3" fill="#3B434F"></path>
                <path d="M3.75577052,14.2520798 C3.75577052,14.2520798 3.66040304,14.3253458 3.57847728,14.3253458 C3.49655152,14.3253458 3.40234654,14.2520798 3.40234654,14.2520798 L3.22648387,12.4505273 C3.22648387,12.4505273 3.46912948,11.5633105 4.49876529,12.0321789 L4.52310456,12.5473069 C4.52310456,12.5473069 3.61975591,12.2216269 3.63843505,12.627173 C3.65641571,13.0175325 3.75577052,14.2520798 3.75577052,14.2520798 L3.75577052,14.2520798 Z" id="Shape-4" fill="#3B434F"></path>
                <path d="M20.8457277,10.5916973 C20.8467277,10.591755 20.9345972,10.5207817 21.1005211,10.4679402 C21.1834521,10.4415784 21.2865185,10.4198937 21.4039957,10.4145458 C21.4333328,10.4132122 21.4635282,10.4128951 21.4944273,10.4137834 C21.5253237,10.414669 21.5569238,10.4167599 21.5890472,10.4202291 C21.653281,10.42717 21.7196258,10.4396447 21.7863856,10.4590682 C22.0536954,10.5367675 22.3263844,10.7256784 22.4865346,11.1155924 C22.5669268,11.3105586 22.6199614,11.5557984 22.6339804,11.8626392 C22.6374884,11.9393506 22.6385606,12.0199112 22.6370244,12.104499 C22.6354831,12.1890867 22.6313307,12.2777018 22.6243947,12.3705222 C22.6105329,12.5561553 22.5854976,12.7586126 22.5481987,12.9792226 C22.5490158,12.9790051 22.5829872,13.6458922 22.3472724,14.4121869 C22.1256797,15.1613926 21.5935579,16.0817234 20.61108,16.3447177 C20.7240749,14.4417191 20.7275855,12.5030517 20.8457277,10.5916973 L20.8457277,10.5916973 L20.8457277,10.5916973 Z" id="Shape-11-copy_1" fill="#F7FBFB"></path>
                <path d="M20.6488687,10.6684166 C20.6488687,10.6684166 22.3604202,10.1320206 22.3001867,11.9117311 C22.3001867,11.9117311 22.0453675,14.4923702 21.9347103,14.730208 C21.9347103,14.730208 21.2625375,16.2327463 20.1532132,16.299336 C19.0690067,16.3644164 20.1532132,16.299336 20.1532132,16.299336 L20.1397483,16.7836373 C20.1397483,16.7836373 22.08952,16.5307857 22.4661054,14.2581403 L22.7633373,12.1935515 C22.7633373,12.1935515 22.9941265,9.46127135 20.7554714,10.1559744 C18.5745704,10.8327579 20.7554714,10.1559744 20.7554714,10.1559744 L20.6488687,10.6684166" id="Shape-3_1" fill="#3B434F"></path>
                <path d="M21.2137944,14.2537987 C21.2137944,14.2537987 21.3095794,14.3270148 21.3918634,14.3270148 C21.4741475,14.3270148 21.5687649,14.2537987 21.5687649,14.2537987 L21.7453982,12.4534698 C21.7453982,12.4534698 21.5016906,11.5668557 20.4675443,12.0354044 L20.4430992,12.5501838 C20.4430992,12.5501838 21.3504044,12.224724 21.3316427,12.629995 C21.3135848,13.0200898 21.2137944,14.2537987 21.2137944,14.2537987 L21.2137944,14.2537987 Z" id="Shape-4_1" fill="#3B434F"></path>
                <path d="M20.7214974,10.5906047 C20.7224949,10.590665 20.8100757,10.5193118 20.9754634,10.4661925 C21.0581238,10.4396893 21.1608552,10.4178893 21.2779509,10.4125125 C21.3071927,10.4111684 21.33729,10.4108513 21.3680886,10.4117449 C21.3988845,10.4126357 21.4303816,10.4147371 21.4623992,10.4182246 C21.5264269,10.4252048 21.5925526,10.4377424 21.6590985,10.4572708 C21.9255396,10.5353814 22.1973445,10.7252959 22.3569715,11.1172825 C22.4371059,11.3132862 22.4899653,11.5598283 22.5039405,11.8682988 C22.5074382,11.9454164 22.5085052,12.026404 22.5069716,12.1114425 C22.505438,12.1964809 22.5012986,12.2855676 22.4943857,12.3788781 C22.4805677,12.5654989 22.4556176,12.7690279 22.4184397,12.9908118 C22.4192491,12.9905943 22.4531122,13.6610238 22.2181655,14.4313877 C21.9972894,15.1845735 21.4668996,16.1097936 20.4876127,16.3741872 C20.600239,14.4610771 20.6037393,12.5121124 20.7214974,10.5906047 L20.7214974,10.5906047 L20.7214974,10.5906047 Z" id="Shape-11" fill="#FFFFFF"></path>
                <path d="M20.6860361,10.6684141 C20.6860361,10.6684141 22.3975851,10.1320206 22.3373542,11.9117338 C22.3373542,11.9117338 22.0825324,14.4923675 21.9718804,14.7302106 C21.9718804,14.7302106 21.2997076,16.2327437 20.1903781,16.2993333 C19.1061742,16.364419 20.1903781,16.2993333 20.1903781,16.2993333 L20.1769159,16.7836373 C20.1769159,16.7836373 22.1266901,16.5307857 22.5032755,14.2581377 L22.8005074,12.1935515 C22.8005074,12.1935515 23.031294,9.46127393 20.7926389,10.1559744 C18.6117378,10.8327554 20.7926389,10.1559744 20.7926389,10.1559744 L20.6860361,10.6684141" id="Shape-3_2" fill="#3B434F"></path>
                <path d="M21.2509619,14.2537987 L21.6059324,14.2537987 L21.7825632,12.4534672 C21.7825632,12.4534672 21.5388582,11.5668531 20.5047117,12.0354044 L20.4802668,12.5501838 C20.4802668,12.5501838 21.3875719,12.224724 21.3688103,12.6299976 C21.3507524,13.0200898 21.2509619,14.2537987 21.2509619,14.2537987 L21.2509619,14.2537987 Z" id="Shape-4_2" fill="#3B434F"></path>
                <path d="M13.1666673,14.1094285 L13.2927921,14.1094285 C13.5535575,14.4694303 13.6596474,15.0226559 13.797296,15.501481 C13.8399536,15.6498706 13.7985693,15.909422 13.7612601,16.0143425 C13.6246243,16.3986047 13.1955817,16.3917084 12.8423433,16.5638369 C12.7474759,16.6100677 12.6769091,16.6898631 12.5540553,16.7103713 C12.4739621,16.6386513 12.3772569,16.6245652 12.3378367,16.5088888 C12.2405129,16.3726543 12.3659469,16.2875792 12.463964,16.2341403 C12.6418552,16.1371563 13.1910041,16.0415689 13.256756,15.8678106 C13.3381096,15.7737325 13.2840156,15.4908771 13.256756,15.3915822 C13.1869419,15.1372554 13.1534318,14.9249305 13.0585593,14.6955559 C12.9955395,14.5431993 12.8848952,14.3825577 12.9504514,14.2010096 C13.0047747,14.1772968 13.1221823,14.150335 13.1666673,14.1094285 L13.1666673,14.1094285 Z" id="new_vector_shape_done" fill="#3B434F"></path>
                <path d="M8.17567466,11.2886878 L8.68018125,11.2886878 C8.9588114,11.2886878 9.1846853,11.5183035 9.1846853,11.8015493 C9.1846853,12.0847951 8.9588114,12.3144107 8.68018125,12.3144107 L8.17567466,12.3144107 C7.89704451,12.3144107 7.67117061,12.0847951 7.67117061,11.8015493 C7.67117061,11.5183035 7.89704451,11.2886878 8.17567466,11.2886878 L8.17567466,11.2886878 Z" id="Rounded-Rectangle-8" fill="#3B434F"></path>
                <path d="M16.3918908,11.2886878 L16.8963974,11.2886878 C17.1750274,11.2886878 17.4009014,11.5183035 17.4009014,11.8015493 C17.4009014,12.0847951 17.1750274,12.3144107 16.8963974,12.3144107 L16.3918908,12.3144107 C16.1132606,12.3144107 15.8873867,12.0847951 15.8873867,11.8015493 C15.8873867,11.5183035 16.1132606,11.2886878 16.3918908,11.2886878 L16.3918908,11.2886878 Z" id="Rounded-Rectangle-8-copy" fill="#3B434F"></path>
                <path d="M6.15765853,9.96989856 L10.9864854,9.96989856 C11.2651155,9.96989856 11.490992,10.1995142 11.490992,10.4827601 L11.490992,13.6331974 C11.490992,13.9164432 11.2651155,14.1460615 10.9864854,14.1460615 L6.15765853,14.1460615 C5.87902846,14.1460615 5.65315194,13.9164432 5.65315194,13.6331974 L5.65315194,10.4827601 C5.65315194,10.1995142 5.87902846,9.96989856 6.15765853,9.96989856 L6.15765853,9.96989856 Z" id="Rounded-Rectangle-10" fill="#3B434F" opacity="0.14902"></path>
                <path d="M13.9414427,9.96989856 L18.7702694,9.96989856 C19.0488996,9.96989856 19.274776,10.1995142 19.274776,10.4827601 L19.274776,13.6331974 C19.274776,13.9164432 19.0488996,14.1460615 18.7702694,14.1460615 L13.9414427,14.1460615 C13.6628125,14.1460615 13.4369361,13.9164432 13.4369361,13.6331974 L13.4369361,10.4827601 C13.4369361,10.1995142 13.6628125,9.96989856 13.9414427,9.96989856 L13.9414427,9.96989856 Z" id="Rounded-Rectangle-10-copy" fill="#3B434F" opacity="0.14902"></path>
                <path d="M19.7072081,10.3362282 L19.7072081,13.0470699 C19.7072081,13.7095315 19.07153,14.7432461 18.0357134,14.8024442 C17.8835508,14.7950683 14.8063067,14.8054547 14.8063067,14.8054547 C13.4230021,14.8054547 13.1486481,13.1203359 13.1486481,13.1203359 L13.1486481,11.2886878 L11.8513519,11.2886878 L11.8513519,13.1203359 C11.8513519,13.1203359 11.5769979,14.8054547 10.1936933,14.8054547 C10.1936933,14.8054547 7.11644924,14.7950683 6.96428657,14.8024442 C5.92847002,14.7432461 5.29279189,13.7095315 5.29279189,13.0470699 L5.29279189,10.3362282 L4.13963986,10.3362282 L4.13963986,9.60356899 L10.8423414,9.60356899 C10.8423414,9.60356899 11.8513519,9.76927538 11.8513519,10.4827601 L13.1486481,10.4827601 C13.1486481,9.76927538 14.1576586,9.60356899 14.1576586,9.60356899 L20.8603601,9.60356899 L20.8603601,10.3362282 L19.7072081,10.3362282 L19.7072081,10.3362282 Z M11.1306294,10.7025578 C11.1306294,10.4414055 10.8423414,10.4094941 10.8423414,10.4094941 L6.01351453,10.4094941 L6.01351453,12.9738041 C6.01351453,13.7727909 7.09459459,14.0727955 7.09459459,14.0727955 L10.0495493,14.0727955 C11.0662306,14.0727955 11.1306294,12.9738041 11.1306294,12.9738041 L11.1306294,10.7025578 L11.1306294,10.7025578 Z M18.9864855,10.4094941 L14.1576586,10.4094941 C14.1576586,10.4094941 13.8693706,10.4414055 13.8693706,10.7025578 L13.8693706,12.9738041 C13.8693706,12.9738041 13.9337694,14.0727955 14.9504507,14.0727955 L17.9054054,14.0727955 C17.9054054,14.0727955 18.9864855,13.7727909 18.9864855,12.9738041 L18.9864855,10.4094941 L18.9864855,10.4094941 Z M17.9774774,14.8062899 C18.0027639,14.8057577 18.0274931,14.80386 18.0524246,14.8024442 C18.0733889,14.803455 18.0523284,14.8047168 17.9774774,14.8062899 L17.9774774,14.8062899 Z M6.96599676,14.8024442 C6.99092829,14.80386 7.01565752,14.8057577 7.04094394,14.8062899 C6.96609296,14.8047168 6.94503252,14.803455 6.96599676,14.8024442 L6.96599676,14.8024442 Z" id="Shape-1-copy-5" fill="#3B434F"></path>
            </g>
        </g>
    </g>
</svg>
