<?xml version="1.0" encoding="UTF-8" standalone="no"?>
<svg width="20px" height="17px" viewBox="0 0 19 15" version="1.1" xmlns="http://www.w3.org/2000/svg" xmlns:xlink="http://www.w3.org/1999/xlink">
    <!-- Generator: Sketch 41.2 (35397) - http://www.bohemiancoding.com/sketch -->
    <title>Shape</title>
    <desc>Created with Sketch.</desc>
    <defs></defs>
    <g id="Page-1" stroke="none" stroke-width="1" fill="none" fill-rule="evenodd">
        <g id="Profile" transform="translate(-1249.000000, -41.000000)" fill="#4D8885">
            <g id="Group-3">
                <g id="round-account-button-with-user-inside" transform="translate(1249.000000, 41.000000)">
                    <g id="Capa_1">
                        <g id="account-circle">
                            <path d="M7.5,0 C3.375,0 0,3.375 0,7.5 C0,11.625 3.375,15 7.5,15 C11.625,15 15,11.625 15,7.5 C15,3.375 11.625,0 7.5,0 Z M7.5,2.25 C8.775,2.25 9.75,3.225 9.75,4.5 C9.75,5.775 8.775,6.75 7.5,6.75 C6.225,6.75 5.25,5.775 5.25,4.5 C5.25,3.225 6.225,2.25 7.5,2.25 Z M7.5,12.9 C5.625,12.9 3.975,11.9250294 3,10.5 C3,9 6,8.175 7.5,8.175 C9,8.175 12,9 12,10.5 C11.025,11.925 9.375,12.9 7.5,12.9 Z" id="Shape"></path>
                        </g>
                    </g>
                </g>
            </g>
        </g>
    </g>
</svg>
